<svg xmlns="http://www.w3.org/2000/svg" viewBox="0 0 512 512"><defs><linearGradient id="b" x2="0" y2="1"><stop stop-color="#16233b"/><stop offset="1" stop-color="#05070a"/></linearGradient><linearGradient id="f"><stop stop-color="#ffd43b"/><stop offset=".55" stop-color="#ff7a18"/><stop offset="1" stop-color="#ef233c"/></linearGradient></defs><rect width="512" height="512" rx="96" fill="url(#b)"/><circle cx="256" cy="190" r="122" fill="#ff5b28" opacity=".9"/><path d="M0 292 74 238l48 24 62-76 50 45 55-92 67 86 45-34 111 78v243H0Z" fill="#09101b"/><path d="M105 329c25-54 75-89 132-89 78 0 142 60 151 136l-59 4c-7-43-44-76-89-76-37 0-70 23-83 56l36 2-69 83-72-80 42-2c2-12 6-23 11-34Z" fill="url(#f)"/><path d="m205 291 50-44 44 32-23 29 51 13-28 42-56-22-19 48-49-21 25-54-29-6Z" fill="#f4d1ad" stroke="#16100e" stroke-width="12" stroke-linejoin="round"/><text x="256" y="465" text-anchor="middle" font-family="Impact,Arial Black,sans-serif" font-size="70" font-style="italic" fill="url(#f)" stroke="#120b08" stroke-width="8" paint-order="stroke">SB</text></svg>