<svg xmlns="http://www.w3.org/2000/svg" width="1024" height="128" viewBox="0 0 1024 128"><defs><linearGradient id="skin" x2="1" y2="1"><stop stop-color="#d99a72"/><stop offset=".55" stop-color="#9b5945"/><stop offset="1" stop-color="#59342e"/></linearGradient><linearGradient id="shirt" x2="1" y2="1"><stop stop-color="#62666b"/><stop offset=".45" stop-color="#292c31"/><stop offset="1" stop-color="#101216"/></linearGradient><linearGradient id="pants" x2="1" y2="1"><stop stop-color="#633b31"/><stop offset="1" stop-color="#291c1b"/></linearGradient><filter id="sh"><feDropShadow dx="1" dy="3" stdDeviation="2.5" flood-opacity=".55"/></filter><g id="head"><path d="M45 17q5-14 20-14 18 0 23 16l-5 22q-7 9-19 9-14 0-20-10z" fill="url(#skin)"/><path d="M47 15q8-13 20-12 13 1 19 11l-8-3-6 4-8-4-8 5z" fill="#221a19"/><path d="M49 28q6-5 12 0m11 0q6-5 11 0" fill="none" stroke="#21191a" stroke-width="3" stroke-linecap="round"/><path d="M52 38q13 8 25 0" fill="none" stroke="#4a2927" stroke-width="4"/></g></defs><g filter="url(#sh)"><g><use href="#head"/><path d="M42 46Q29 57 30 78l8 17 14-7 3-29 10-10 11 9 3 30 14 7 9-18Q101 57 88 46 65 37 42 46z" fill="url(#skin)"/><path d="M45 44q20-8 42 1l12 45-22 9H52l-21-9z" fill="url(#shirt)"/><path d="M49 94h35l11 27H69l-4-18-4 18H34z" fill="url(#pants)"/><path d="M31 118h34v8H29q-2-5 2-8zm38 0h27l5 8H68z" fill="#121317"/></g><g transform="translate(128)"><use href="#head"/><path d="M41 47Q30 57 32 78l10 13 13-8 3-25 9-9 13 9 2 27 15 8 7-18Q100 55 87 46 64 39 41 47z" fill="url(#skin)"/><path d="M45 44q20-8 42 1l12 45-22 9H52l-21-9z" fill="url(#shirt)"/><path d="M45 94h34l-3 26H48l-15 5-5-7 24-12z" fill="url(#pants)"/><path d="M75 96l22 20-5 9-27-13z" fill="#3d2824"/></g><g transform="translate(256)"><path d="M39 20q8-15 24-15 18 0 25 17l-7 23q-8 8-20 7-14-2-19-12z" fill="url(#skin)"/><path d="M42 47q18-10 41-2l12 43-22 11H48L29 87z" fill="url(#shirt)"/><path d="M49 53Q33 60 24 79l12 8 23-21z" fill="url(#skin)"/><path d="M76 51q12-6 23 4l30-2 1 16-36 7-21-12z" fill="url(#skin)"/><path d="M117 51q12 1 13 14l-15 7-7-12z" fill="#281a18"/><path d="M47 94h38l10 27H68l-3-18-5 18H33z" fill="url(#pants)"/></g><g transform="translate(384)"><path d="M37 22q9-16 25-16 19 0 27 18l-8 23q-9 8-22 5-14-2-19-12z" fill="url(#skin)"/><path d="M39 48q20-12 45-3l13 42-23 12H47L27 86z" fill="url(#shirt)"/><path d="M47 53Q31 61 23 79l13 9 22-20z" fill="url(#skin)"/><path d="M72 50q13-8 25 2l34 8-4 17-37-4-22-11z" fill="url(#skin)"/><path d="M118 58q12 2 12 15l-16 5-6-13z" fill="#281a18"/><path d="M45 94h40l11 27H68l-4-18-6 18H31z" fill="url(#pants)"/></g><g transform="translate(512)"><path d="M43 20q7-14 22-14 18 0 24 16l-6 22q-7 9-20 8-13-1-19-11z" fill="url(#skin)"/><path d="M40 47q22-10 44 0l11 42-22 9H49L30 88z" fill="url(#shirt)"/><path d="M38 53q-12 11-13 28l13 9 15-24zM84 51q12 7 15 23L87 85 72 63z" fill="url(#skin)"/><path d="M48 92l25 3-7 27H36l-10-8 26-9z" fill="url(#pants)"/><path d="M70 94q13-8 24 2l36-18 2 19-39 19-24-6z" fill="url(#pants)"/><path d="M119 80q12-3 14 9l-3 11-16-1z" fill="#121317"/></g><g transform="translate(640)"><path d="M40 25q7-14 22-14 17 0 24 15l-7 21q-8 8-19 7-13-1-19-10z" fill="url(#skin)"/><path d="M38 50q22-11 47-2l13 41-24 11H46L27 87z" fill="url(#shirt)"/><path d="M43 55l-24 23 11 14 31-25zM82 54l28 20-9 15-35-23z" fill="url(#skin)"/><path d="M43 96h41l12 25H68l-4-16-7 16H30z" fill="url(#pants)"/><path d="M25 43q38-15 78 1" stroke="#fff0c6" stroke-width="8" stroke-linecap="round" opacity=".8"/></g><g transform="translate(768)"><g transform="rotate(68 62 92)"><use href="#head"/><path d="M42 46q22-10 44 0l12 44-23 9H50L29 88z" fill="url(#shirt)"/><path d="M48 94h38l10 27H68l-4-18-5 18H32z" fill="url(#pants)"/></g></g><g transform="translate(896)"><path d="M47 26q6-13 19-13 16 0 22 15l-7 21q-7 8-18 7-13-1-18-10z" fill="url(#skin)"/><path d="M38 53q24-12 49-2l11 40-24 10H47L27 88z" fill="url(#shirt)"/><path d="M42 57l-18 28 14 9 22-25zM86 56l18 28-14 10-22-25z" fill="url(#skin)"/><path d="M43 97h42l11 24H68l-4-15-7 15H29z" fill="url(#pants)"/></g></g></svg>