<svg xmlns="http://www.w3.org/2000/svg" width="1024" height="128" viewBox="0 0 1024 128"><defs><linearGradient id="skin" x2="1" y2="1"><stop stop-color="#d9956e"/><stop offset=".55" stop-color="#a75f47"/><stop offset="1" stop-color="#65372f"/></linearGradient><linearGradient id="vest" x2="1" y2="1"><stop stop-color="#4b5058"/><stop offset=".5" stop-color="#24272d"/><stop offset="1" stop-color="#0c0e12"/></linearGradient><linearGradient id="pants" x2="1" y2="1"><stop stop-color="#b3323b"/><stop offset="1" stop-color="#591721"/></linearGradient><filter id="shadow"><feDropShadow dx="1" dy="3" stdDeviation="2" flood-opacity=".5"/></filter><g id="body"><ellipse cx="65" cy="122" rx="32" ry="4" fill="#050609" opacity=".42"/><g filter="url(#shadow)"><path d="M47 17q5-12 18-12 15 0 21 14l-4 20q-6 8-17 8-12 0-18-9z" fill="url(#skin)"/><path d="M43 13q22-9 46 2l-1 8q-22-7-45-1z" fill="#c5232d"/><path d="M82 16q13-2 18 4l-17 3z" fill="#ee4148"/><path d="M51 27q5-5 11 0m9 0q5-5 10 0" fill="none" stroke="#271b1b" stroke-width="2.4" stroke-linecap="round"/><path d="M55 36q10 5 19 0" fill="none" stroke="#5c302b" stroke-width="2.5"/><path d="M41 43q-9 8-10 27l5 18 13-5 2-27 10-10zM88 43q9 8 11 27l-5 18-13-5-2-27-10-10z" fill="url(#skin)"/><path d="M46 41q19-7 38 1l10 44-19 8H54l-19-8z" fill="url(#vest)"/><path d="M50 45l7 38m25-38l-8 38" stroke="#6d747d" stroke-width="3" opacity=".65"/><path d="M59 45h13l-2 32H61z" fill="#b87b55" opacity=".8"/><path d="M62 49h7v7h-7z" fill="#d8ae47"/><path d="M35 80q7-4 14 3l-2 10-16-1-4-7zM93 80q-7-4-14 3l2 10 16-1 4-7z" fill="#15171c"/><path d="M48 90h34l9 29H68l-3-21-4 21H38z" fill="url(#pants)"/><path d="M36 116q14-4 27 1l1 8H34q-3-5 2-9zm32 1q13-4 25 1l3 7H67z" fill="#111318"/><path d="M38 119h25m7 0h23" stroke="#6c737a" stroke-width="2"/></g></g></defs><g><use href="#body"/></g><g transform="translate(128)"><use href="#body"/><path d="M38 93q12-5 24 1v26H33z" fill="#9c2632"/><path d="M71 89q13-4 21 3l2 28H68z" fill="#651a25"/></g><g transform="translate(256)"><use href="#body"/><path d="M77 45q12-7 21 3l29-3 1 14-34 5-18-8z" fill="url(#skin)"/><path d="M119 45q8 1 9 12l-11 5-5-10z" fill="#15171c"/></g><g transform="translate(384)"><use href="#body"/><path d="M77 48q12-6 20 4l30 1 1 14-35-1-17-8z" fill="url(#skin)"/><path d="M119 52q8 1 9 12l-11 5-5-10z" fill="#15171c"/></g><g transform="translate(512)"><use href="#body"/><path d="M69 84q12-8 20 2l39-19v18l-38 18-19-4z" fill="url(#pants)"/><path d="M116 68q10-2 12 8v11l-14-1z" fill="#111318"/></g><g transform="translate(640)"><use href="#body"/><path d="M34 39q31-12 64 1" stroke="#fff0ce" stroke-width="7" stroke-linecap="round"/><path d="M40 49q26-8 53 0" stroke="#ff9c35" stroke-width="4" stroke-linecap="round"/></g><g transform="translate(768)"><g transform="rotate(74 64 91)"><use href="#body"/></g><ellipse cx="65" cy="119" rx="46" ry="5" fill="#08090c" opacity=".5"/></g><g transform="translate(896)"><use href="#body"/><path d="M33 49q8-10 17 0l-4 31-13 5zM96 49q-8-10-17 0l4 31 13 5z" fill="url(#skin)"/></g></svg>